<svg xmlns="http://www.w3.org/2000/svg" xmlns:xlink="http://www.w3.org/1999/xlink" version="1.1" width="250" height="250" viewBox="0 0 256 256" xml:space="preserve">
<g style="stroke: none; stroke-width: 0; stroke-dasharray: none; stroke-linecap: butt; stroke-linejoin: miter; stroke-miterlimit: 10; fill: none; fill-rule: nonzero; opacity: 1;" transform="translate(76.40155642023348 76.40155642023345) scale(1.14 1.14)">
	<path d="M 89 24.041 H 1 c -0.552 0 -1 -0.448 -1 -1 s 0.448 -1 1 -1 h 88 c 0.553 0 1 0.448 1 1 S 89.553 24.041 89 24.041 z" style="stroke: none; stroke-width: 1; stroke-dasharray: none; stroke-linecap: butt; stroke-linejoin: miter; stroke-miterlimit: 10; fill: rgb(0,0,0); fill-rule: nonzero; opacity: 1;" transform=" matrix(1 0 0 1 0 0) " stroke-linecap="round"/>
    <path d="M 27.615 17.616 h -8.547 c -0.552 0 -1 -0.448 -1 -1 V 3.467 c 0 -0.552 0.448 -1 1 -1 h 8.547 c 0.552 0 1 0.448 1 1 v 13.149 C 28.615 17.168 28.167 17.616 27.615 17.616 z M 20.067 15.616 h 6.547 V 4.467 h -6.547 C 20.067 4.467 20.067 15.616 20.067 15.616 z" style="stroke: none; stroke-width: 1; stroke-dasharray: none; stroke-linecap: butt; stroke-linejoin: miter; stroke-miterlimit: 10; fill: rgb(0,0,0); fill-rule: nonzero; opacity: 1;" transform=" matrix(1 0 0 1 0 0) " stroke-linecap="round"/>
    <path d="M 70.933 17.616 h -8.547 c -0.553 0 -1 -0.448 -1 -1 V 3.467 c 0 -0.552 0.447 -1 1 -1 h 8.547 c 0.553 0 1 0.448 1 1 v 13.149 C 71.933 17.168 71.485 17.616 70.933 17.616 z M 63.386 15.616 h 6.547 V 4.467 h -6.547 C 63.386 4.467 63.386 15.616 63.386 15.616 z" style="stroke: none; stroke-width: 1; stroke-dasharray: none; stroke-linecap: butt; stroke-linejoin: miter; stroke-miterlimit: 10; fill: rgb(0,0,0); fill-rule: nonzero; opacity: 1;" transform=" matrix(1 0 0 1 0 0) " stroke-linecap="round"/>
    <path d="M 49.273 17.616 h -8.547 c -0.552 0 -1 -0.448 -1 -1 V 3.467 c 0 -0.552 0.448 -1 1 -1 h 8.547 c 0.553 0 1 0.448 1 1 v 13.149 C 50.273 17.168 49.826 17.616 49.273 17.616 z M 41.727 15.616 h 6.547 V 4.467 h -6.547 V 15.616 z" style="stroke: none; stroke-width: 1; stroke-dasharray: none; stroke-linecap: butt; stroke-linejoin: miter; stroke-miterlimit: 10; fill: rgb(0,0,0); fill-rule: nonzero; opacity: 1;" transform=" matrix(1 0 0 1 0 0) " stroke-linecap="round"/>
    <path d="M 89 87.533 H 1 c -0.552 0 -1 -0.447 -1 -1 V 8.28 c 0 -0.552 0.448 -1 1 -1 h 18.067 c 0.552 0 1 0.448 1 1 s -0.448 1 -1 1 H 2 v 76.253 h 86 V 9.28 H 70.933 c -0.553 0 -1 -0.448 -1 -1 s 0.447 -1 1 -1 H 89 c 0.553 0 1 0.448 1 1 v 78.253 C 90 87.086 89.553 87.533 89 87.533 z" style="stroke: none; stroke-width: 1; stroke-dasharray: none; stroke-linecap: butt; stroke-linejoin: miter; stroke-miterlimit: 10; fill: rgb(0,0,0); fill-rule: nonzero; opacity: 1;" transform=" matrix(1 0 0 1 0 0) " stroke-linecap="round"/>
    <path d="M 62.386 9.28 H 49.273 c -0.553 0 -1 -0.448 -1 -1 s 0.447 -1 1 -1 h 13.112 c 0.553 0 1 0.448 1 1 S 62.938 9.28 62.386 9.28 z" style="stroke: none; stroke-width: 1; stroke-dasharray: none; stroke-linecap: butt; stroke-linejoin: miter; stroke-miterlimit: 10; fill: rgb(0,0,0); fill-rule: nonzero; opacity: 1;" transform=" matrix(1 0 0 1 0 0) " stroke-linecap="round"/>
    <path d="M 40.727 9.28 H 27.615 c -0.552 0 -1 -0.448 -1 -1 s 0.448 -1 1 -1 h 13.112 c 0.552 0 1 0.448 1 1 S 41.279 9.28 40.727 9.28 z" style="stroke: none; stroke-width: 1; stroke-dasharray: none; stroke-linecap: butt; stroke-linejoin: miter; stroke-miterlimit: 10; fill: rgb(0,0,0); fill-rule: nonzero; opacity: 1;" transform=" matrix(1 0 0 1 0 0) " stroke-linecap="round"/>
    <path d="M 31.895 78.782 c -0.168 0 -0.336 -0.042 -0.487 -0.127 c -5.293 -2.952 -13.537 -9.89 -16.962 -14.275 c -7.154 -9.156 -8.673 -19.953 -3.61 -25.671 c 2.408 -2.721 5.792 -4.291 9.528 -4.42 c 4.065 -0.138 8.123 1.457 11.532 4.515 c 3.409 -3.059 7.485 -4.661 11.532 -4.515 c 3.736 0.129 7.12 1.699 9.528 4.42 c 5.063 5.719 3.544 16.515 -3.61 25.671 c -3.425 4.385 -11.668 11.322 -16.962 14.275 C 32.23 78.74 32.063 78.782 31.895 78.782 z M 20.856 36.28 c -0.142 0 -0.283 0.002 -0.424 0.007 c -3.182 0.11 -6.059 1.44 -8.1 3.746 c -4.424 4.998 -2.873 14.718 3.688 23.116 c 3.135 4.013 10.832 10.53 15.874 13.48 c 5.042 -2.951 12.739 -9.468 15.873 -13.48 c 6.561 -8.397 8.112 -18.118 3.688 -23.116 l 0 0 c -2.04 -2.306 -4.917 -3.636 -8.099 -3.746 c -3.783 -0.125 -7.611 1.503 -10.762 4.601 c -0.389 0.383 -1.014 0.383 -1.402 0 C 28.161 37.906 24.505 36.28 20.856 36.28 z" style="stroke: none; stroke-width: 1; stroke-dasharray: none; stroke-linecap: butt; stroke-linejoin: miter; stroke-miterlimit: 10; fill: rgb(0,0,0); fill-rule: nonzero; opacity: 1;" transform=" matrix(1 0 0 1 0 0) " stroke-linecap="round"/>
    <path d="M 62.856 76.14 c -0.168 0 -0.336 -0.042 -0.487 -0.127 c -4.221 -2.354 -10.795 -7.889 -13.528 -11.387 c -0.223 -0.285 -0.439 -0.573 -0.649 -0.863 c -0.322 -0.448 -0.222 -1.073 0.227 -1.396 c 0.449 -0.321 1.073 -0.221 1.396 0.227 c 0.194 0.271 0.396 0.537 0.603 0.803 c 2.456 3.143 8.455 8.23 12.439 10.591 c 3.985 -2.359 9.984 -7.448 12.44 -10.591 c 5.147 -6.589 6.382 -14.196 2.937 -18.089 c -1.582 -1.788 -3.814 -2.819 -6.284 -2.905 c -2.95 -0.104 -5.932 1.174 -8.392 3.593 c -0.389 0.383 -1.014 0.383 -1.402 0 c -2.496 -2.455 -5.52 -3.737 -8.511 -3.588 c -0.54 0.018 -1.02 -0.4 -1.046 -0.952 s 0.4 -1.02 0.952 -1.046 c 3.274 -0.152 6.546 1.086 9.306 3.509 c 2.718 -2.383 5.941 -3.629 9.162 -3.515 c 3.023 0.104 5.763 1.375 7.713 3.579 c 4.084 4.614 2.882 13.297 -2.858 20.645 c -2.733 3.499 -9.309 9.032 -13.529 11.387 C 63.192 76.098 63.024 76.14 62.856 76.14 z" style="stroke: none; stroke-width: 1; stroke-dasharray: none; stroke-linecap: butt; stroke-linejoin: miter; stroke-miterlimit: 10; fill: rgb(0,0,0); fill-rule: nonzero; opacity: 1;" transform=" matrix(1 0 0 1 0 0) " stroke-linecap="round"/>
</g>
</svg>