<svg xmlns="http://www.w3.org/2000/svg" xmlns:xlink="http://www.w3.org/1999/xlink" baseProfile="full" height="200px" version="1.1" viewBox="0 0 412 748" width="200px"><defs/><polygon fill="black" points="189,25"/><polygon fill="black" points="198,23 195,26 194,26 193,27 192,27 192,28 191,29 191,30 190,31 190,34 191,34 194,37 194,64 195,65 195,69 194,70 194,76 196,78 196,82 195,83 195,91 194,92 194,100 193,101 193,106 192,107 192,116 191,117 191,122 190,123 190,132 189,133 189,138 188,139 188,140 187,141 178,141 177,142 177,162 175,164 172,164 172,170 171,171 170,171 169,172 167,172 166,173 166,230 165,231 155,231 154,232 154,255 152,257 146,257 146,330 144,332 135,332 134,333 134,361 133,362 132,362 131,363 127,363 126,364 127,365 127,367 126,368 127,369 127,402 126,403 126,404 125,405 90,405 89,406 89,417 88,418 76,418 75,419 75,436 73,438 31,438 30,439 30,460 29,461 26,461 25,462 24,462 23,461 22,461 21,462 21,684 22,685 377,685 378,684 378,462 376,462 375,461 369,461 368,460 368,439 367,438 326,438 324,436 324,419 322,419 321,418 310,418 309,417 309,406 308,405 272,405 270,403 270,363 267,363 264,360 264,332 254,332 252,330 252,257 246,257 244,255 244,232 243,232 242,231 232,231 231,230 231,172 229,172 227,170 227,165 226,164 223,164 222,163 222,144 221,143 221,141 211,141 210,140 210,138 209,137 209,129 208,128 208,123 207,122 207,113 206,112 206,107 205,106 205,97 204,96 204,89 203,88 203,82 202,81 202,79 203,78 203,77 205,75 205,70 203,68 203,67 204,66 204,47 205,46 206,46 208,48 209,47 209,45 208,44 208,43 207,42 207,40 206,39 206,38 205,37 205,34 204,33 204,32 202,30 202,24 201,24 200,23"/></svg>